<?xml version="1.0" encoding="utf-8"?>
<!-- Generator: Adobe Illustrator 21.1.0, SVG Export Plug-In . SVG Version: 6.00 Build 0)  -->
<svg version="1.1" xmlns="http://www.w3.org/2000/svg" xmlns:xlink="http://www.w3.org/1999/xlink" x="0px" y="0px"
	 viewBox="0 0 603.2 136.8" style="enable-background:new 0 0 603.2 136.8;" xml:space="preserve">
<style type="text/css">
	.st0{fill:#3AD5F9;}
	.st1{clip-path:url(#SVGID_2_);fill:#1EE1C5;}
	.st2{clip-path:url(#SVGID_2_);fill:#1EE0C7;}
	.st3{clip-path:url(#SVGID_2_);fill:#1EDFC8;}
	.st4{clip-path:url(#SVGID_2_);fill:#1EDFCA;}
	.st5{clip-path:url(#SVGID_2_);fill:#1EDECC;}
	.st6{clip-path:url(#SVGID_2_);fill:#1EDDCE;}
	.st7{clip-path:url(#SVGID_2_);fill:#1EDCCF;}
	.st8{clip-path:url(#SVGID_2_);fill:#1EDCD1;}
	.st9{clip-path:url(#SVGID_2_);fill:#1FDBD2;}
	.st10{clip-path:url(#SVGID_2_);fill:#1FDAD4;}
	.st11{clip-path:url(#SVGID_2_);fill:#1FDAD5;}
	.st12{clip-path:url(#SVGID_2_);fill:#1FD9D7;}
	.st13{clip-path:url(#SVGID_2_);fill:#1FD9D8;}
	.st14{clip-path:url(#SVGID_2_);fill:#1FD8DA;}
	.st15{clip-path:url(#SVGID_2_);fill:#1FD7DB;}
	.st16{clip-path:url(#SVGID_2_);fill:#1FD7DC;}
	.st17{clip-path:url(#SVGID_2_);fill:#1FD6DE;}
	.st18{clip-path:url(#SVGID_2_);fill:#1FD6DF;}
	.st19{clip-path:url(#SVGID_2_);fill:#20D5E0;}
	.st20{clip-path:url(#SVGID_2_);fill:#20D5E1;}
	.st21{clip-path:url(#SVGID_2_);fill:#20D4E3;}
	.st22{clip-path:url(#SVGID_2_);fill:#20D4E4;}
	.st23{clip-path:url(#SVGID_2_);fill:#20D3E5;}
	.st24{clip-path:url(#SVGID_2_);fill:#20D3E6;}
	.st25{clip-path:url(#SVGID_2_);fill:#20D2E7;}
	.st26{clip-path:url(#SVGID_2_);fill:#20D2E8;}
	.st27{clip-path:url(#SVGID_2_);fill:#20D2E9;}
	.st28{clip-path:url(#SVGID_2_);fill:#20D1EA;}
	.st29{clip-path:url(#SVGID_2_);fill:#20D1EB;}
	.st30{clip-path:url(#SVGID_2_);fill:#20D0EC;}
	.st31{clip-path:url(#SVGID_2_);fill:#20D0ED;}
	.st32{clip-path:url(#SVGID_2_);fill:#21D0EE;}
	.st33{clip-path:url(#SVGID_2_);fill:#21CFEE;}
	.st34{clip-path:url(#SVGID_2_);fill:#21CFEF;}
	.st35{clip-path:url(#SVGID_2_);fill:#21CFF0;}
	.st36{clip-path:url(#SVGID_2_);fill:#21CEF1;}
	.st37{clip-path:url(#SVGID_2_);fill:#21CEF2;}
	.st38{clip-path:url(#SVGID_2_);fill:#21CEF3;}
	.st39{clip-path:url(#SVGID_2_);fill:#21CDF3;}
	.st40{clip-path:url(#SVGID_2_);fill:#21CDF4;}
	.st41{clip-path:url(#SVGID_2_);fill:#1DE4BD;}
	.st42{clip-path:url(#SVGID_2_);fill:#1DE3BF;}
	.st43{clip-path:url(#SVGID_2_);fill:#1DE2C1;}
	.st44{clip-path:url(#SVGID_2_);fill:#1DE2C3;}
</style>
<g>
	<g>
		<g>
			<path class="st0" d="M382.2,119.1h-10.6c-0.8,0-1.4,0.6-1.4,1.4c0,0.8,0.6,1.4,1.4,1.4h3.8v13.2c0,0.8,0.7,1.5,1.5,1.5
				c0.9,0,1.5-0.7,1.5-1.5V122h3.8c0.8,0,1.4-0.6,1.4-1.4C383.7,119.7,383,119.1,382.2,119.1z"/>
			<path class="st0" d="M391,124.2c-1.1,0-2.5,0.4-3.4,1.2v-5.8c0-0.8-0.7-1.5-1.5-1.5c-0.8,0-1.5,0.7-1.5,1.5v15.5
				c0,0.8,0.7,1.5,1.5,1.5c0.8,0,1.5-0.7,1.5-1.5v-5.1c0-2.2,1.7-2.9,3.1-2.9c1.4,0,2.3,1,2.3,2.6v5.4c0,0.8,0.7,1.5,1.5,1.5
				c0.8,0,1.5-0.7,1.5-1.5v-5.6c0-1.7-0.5-3.1-1.4-4.1C393.7,124.7,392.5,124.2,391,124.2z"/>
			<path class="st0" d="M403.5,124.2c-3.6,0-6.2,2.6-6.2,6.2c0,3.7,2.6,6.3,6.2,6.3c2.1,0,3.8-0.8,4.9-2.2c0.2-0.3,0.3-0.6,0.3-0.9
				c0-0.4-0.2-0.7-0.5-1c-0.6-0.4-1.4-0.3-2,0.3c-0.7,0.8-1.4,1.1-2.6,1.1c-1.6,0-2.8-0.9-3.2-2.3h7.9c0.7,0,1.3-0.6,1.3-1.2
				C409.5,126.8,407.1,124.2,403.5,124.2z M400.4,129.3c0.4-1.4,1.6-2.3,3.1-2.3c1.5,0,2.6,0.9,3,2.3H400.4z"/>
			<path class="st0" d="M424.8,120.3c-0.3-0.9-1-1.3-1.9-1.3h-0.1c-0.9,0-1.5,0.4-1.9,1.3l-5.4,14.3c-0.2,0.4-0.2,0.8,0,1.2
				c0.2,0.4,0.5,0.7,0.9,0.8c0.2,0.1,0.4,0.1,0.5,0.1c0.6,0,1.2-0.4,1.4-1l1.3-3.4h6.6l1.3,3.4c0.3,0.8,1.1,1.2,1.9,0.9
				c0.4-0.2,0.7-0.4,0.8-0.8c0.2-0.4,0.2-0.8,0-1.2L424.8,120.3z M425.1,129.5h-4.5l2.2-6.3L425.1,129.5z"/>
			<path class="st0" d="M446.1,124.5h-1.2v-2.9c0-0.8-0.7-1.5-1.5-1.5c-0.8,0-1.5,0.7-1.5,1.5v2.9h-0.8c-0.6,0-1.1,0.4-1.3,1
				c0-0.3-0.2-0.5-0.3-0.6c-0.4-0.4-1.1-0.7-2.1-0.7c-1.2,0-2.1,0.5-2.8,1.5c-0.1-0.7-0.7-1.3-1.5-1.3c-0.8,0-1.5,0.7-1.5,1.5v9.3
				c0,0.8,0.7,1.5,1.5,1.5c0.8,0,1.5-0.7,1.5-1.5v-3.1c0-1.5,0.3-5,2.7-5c0.1,0,0.3,0,0.5,0c1.4,0.1,1.8-0.5,1.9-1.1
				c0.1,0.6,0.6,1,1.3,1h0.8v8.1c0,0.8,0.7,1.5,1.5,1.5c0.8,0,1.5-0.7,1.5-1.5v-8.1h1.2c0.7,0,1.3-0.6,1.3-1.3
				C447.4,125.1,446.8,124.5,446.1,124.5z"/>
			<path class="st0" d="M460,124.2c-3.6,0-6.3,2.6-6.3,6.2c0,3.6,2.7,6.3,6.3,6.3c3.6,0,6.3-2.7,6.3-6.3
				C466.4,126.9,463.7,124.2,460,124.2z M463.4,130.5c0,2-1.4,3.4-3.4,3.4c-1.9,0-3.4-1.4-3.4-3.4c0-1.9,1.4-3.3,3.4-3.3
				C462,127.1,463.4,128.6,463.4,130.5z"/>
			<path class="st0" d="M473.7,118.2h-0.3c-3,0-4.7,1.9-4.7,5.4v0.9h-1c-0.7,0-1.3,0.6-1.3,1.3c0,0.7,0.6,1.3,1.3,1.3h1v8.1
				c0,0.8,0.7,1.5,1.5,1.5c0.8,0,1.5-0.7,1.5-1.5v-8.1h1.6c0.7,0,1.3-0.6,1.3-1.3c0-0.7-0.6-1.3-1.3-1.3h-1.6v-0.9
				c0-1,0.2-1.7,0.5-2.1c0.3-0.3,0.7-0.4,1.2-0.4h0.3c0.8,0,1.4-0.6,1.4-1.4C475.1,118.8,474.5,118.2,473.7,118.2z"/>
			<path class="st0" d="M485.8,124.5h-1.2v-2.9c0-0.8-0.7-1.5-1.5-1.5c-0.8,0-1.5,0.7-1.5,1.5v2.9h-0.8c-0.7,0-1.3,0.6-1.3,1.3
				c0,0.7,0.6,1.3,1.3,1.3h0.8v8.1c0,0.8,0.7,1.5,1.5,1.5c0.8,0,1.5-0.7,1.5-1.5v-8.1h1.2c0.7,0,1.3-0.6,1.3-1.3
				C487.1,125.1,486.5,124.5,485.8,124.5z"/>
			<path class="st0" d="M494.6,124.2c-1.1,0-2.5,0.4-3.4,1.2v-5.8c0-0.8-0.7-1.5-1.5-1.5c-0.8,0-1.5,0.7-1.5,1.5v15.5
				c0,0.8,0.7,1.5,1.5,1.5c0.8,0,1.5-0.7,1.5-1.5v-5.1c0-2.2,1.7-2.9,3.1-2.9c1.4,0,2.3,1,2.3,2.6v5.4c0,0.8,0.7,1.5,1.5,1.5
				c0.8,0,1.5-0.7,1.5-1.5v-5.6c0-1.7-0.5-3.1-1.4-4.1C497.2,124.7,496,124.2,494.6,124.2z"/>
			<path class="st0" d="M507.1,124.2c-3.6,0-6.2,2.6-6.2,6.2c0,3.7,2.6,6.3,6.2,6.3c2.1,0,3.8-0.8,4.9-2.2c0.2-0.3,0.3-0.6,0.3-0.9
				c0-0.4-0.2-0.7-0.5-1c-0.6-0.4-1.4-0.3-2,0.3c-0.7,0.8-1.4,1.1-2.6,1.1c-1.6,0-2.8-0.9-3.2-2.3h7.9c0.7,0,1.2-0.6,1.2-1.2
				C513.1,126.8,510.6,124.2,507.1,124.2z M504,129.3c0.4-1.4,1.6-2.3,3.1-2.3c1.5,0,2.6,0.9,3,2.3H504z"/>
			<path class="st0" d="M527.9,119.1h-5.7c-0.7,0-1.3,0.6-1.3,1.3v14.7c0,0.8,0.7,1.5,1.5,1.5c0.8,0,1.5-0.7,1.5-1.5v-4.9h4
				c3.9,0,5.3-3,5.3-5.6C533.2,122.1,531.8,119.1,527.9,119.1z M530.2,124.7c0,1.3-0.7,2.7-2.5,2.7h-3.9V122h4
				C529.6,122,530.2,123.4,530.2,124.7z"/>
			<path class="st0" d="M539.5,124.2c-3.6,0-6.3,2.6-6.3,6.2c0,3.6,2.7,6.3,6.3,6.3c3.6,0,6.3-2.7,6.3-6.3
				C545.8,126.9,543.2,124.2,539.5,124.2z M542.9,130.5c0,2-1.4,3.4-3.4,3.4c-1.9,0-3.4-1.4-3.4-3.4c0-1.9,1.4-3.3,3.4-3.3
				C541.4,127.1,542.9,128.6,542.9,130.5z"/>
			<path class="st0" d="M552.6,129.4L551,129c-0.3-0.1-1.1-0.3-1.1-0.9c0-0.7,0.6-1.1,1.4-1.1c0.6,0,1.1,0.2,1.5,0.8
				c0.2,0.3,0.5,0.6,1.1,0.6c0.6,0,1.4-0.4,1.4-1.4c0-0.2,0-0.4-0.2-0.7c-0.7-1.3-2.1-2.1-3.9-2.1c-2.5,0-4.3,1.6-4.3,3.7
				c0,1.8,1.1,3,3.3,3.6l1.6,0.4c1.1,0.2,1.2,0.7,1.2,1.1c0,0.7-0.7,1.1-1.6,1.1c-1,0-1.7-0.4-2-1.1c-0.2-0.5-0.7-0.9-1.3-0.9
				c-0.7,0-1.4,0.4-1.4,1.2c0,0.1,0,0.3,0.1,0.4c0.5,1.8,2.4,3,4.4,3c2.8,0,4.8-1.6,4.8-3.8C555.9,131.7,555.3,130,552.6,129.4z"/>
			<path class="st0" d="M562.9,129.4l-1.7-0.4c-0.3-0.1-1.1-0.3-1.1-0.9c0-0.7,0.6-1.1,1.4-1.1c0.6,0,1.1,0.2,1.5,0.8
				c0.2,0.3,0.5,0.6,1.1,0.6c0.6,0,1.4-0.4,1.4-1.4c0-0.2,0-0.4-0.2-0.7c-0.7-1.3-2.1-2.1-3.9-2.1c-2.5,0-4.3,1.6-4.3,3.7
				c0,1.8,1.1,3,3.3,3.6l1.6,0.4c1.1,0.3,1.2,0.7,1.2,1.1c0,0.7-0.7,1.1-1.6,1.1c-1,0-1.7-0.4-2-1.1c-0.2-0.5-0.7-0.9-1.3-0.9
				c-0.7,0-1.4,0.4-1.4,1.2c0,0.1,0,0.2,0.1,0.4c0.5,1.8,2.4,3,4.4,3c2.8,0,4.8-1.6,4.8-3.8C566.1,131.7,565.6,130,562.9,129.4z"/>
			<path class="st0" d="M569.3,124.4c-0.8,0-1.5,0.7-1.5,1.5v9.3c0,0.8,0.7,1.5,1.5,1.5c0.8,0,1.5-0.7,1.5-1.5v-9.3
				C570.8,125,570.1,124.4,569.3,124.4z"/>
			<path class="st0" d="M569.3,118.9c-1.1,0-1.9,0.8-1.9,1.8s0.8,1.8,1.9,1.8c1.1,0,1.9-0.8,1.9-1.8S570.4,118.9,569.3,118.9z"/>
			<path class="st0" d="M579.5,124.2c-1.5,0-2.7,0.5-3.6,1.3v-5.8c0-0.8-0.7-1.5-1.5-1.5c-0.8,0-1.5,0.7-1.5,1.5v15.5
				c0,0.8,0.7,1.5,1.5,1.5c0.7,0,1.3-0.5,1.5-1.2c0.9,0.8,2.2,1.3,3.6,1.3c3.5,0,6.1-2.7,6.1-6.3
				C585.6,126.9,583.1,124.2,579.5,124.2z M582.6,130.5c0,2-1.4,3.4-3.3,3.4c-1.6,0-3.4-1.1-3.4-3.4c0-2.2,1.7-3.3,3.4-3.3
				C581.3,127.1,582.6,128.5,582.6,130.5z"/>
			<path class="st0" d="M588.6,118.2c-0.8,0-1.5,0.7-1.5,1.5v15.5c0,0.8,0.7,1.5,1.5,1.5c0.8,0,1.5-0.7,1.5-1.5v-15.5
				C590.1,118.9,589.4,118.2,588.6,118.2z"/>
			<path class="st0" d="M603.2,130.5c0-3.7-2.5-6.2-6-6.2c-3.6,0-6.2,2.6-6.2,6.2c0,3.7,2.6,6.3,6.2,6.3c2.1,0,3.8-0.8,4.9-2.2
				c0.2-0.3,0.3-0.6,0.3-0.9c0-0.4-0.2-0.8-0.5-1c-0.6-0.4-1.4-0.3-2,0.3c-0.7,0.8-1.4,1.1-2.6,1.1c-1.6,0-2.8-0.9-3.2-2.3h7.9
				C602.6,131.7,603.2,131.2,603.2,130.5z M600.2,129.3H594c0.4-1.4,1.6-2.3,3.1-2.3C598.7,127,599.8,127.8,600.2,129.3z"/>
		</g>
		<g>
			<g>
				<defs>
					<path id="SVGID_1_" d="M52.5,121.1c-2.1,0.4-3.5,2.4-3.1,4.5c0.4,2.1,2.4,3.5,4.5,3.1c2.1-0.4,3.5-2.4,3.1-4.5
						c-0.4-1.9-2-3.1-3.8-3.1C52.9,121,52.7,121,52.5,121.1 M0.9,54.6C0.3,58.1,0,61.7,0,65.3c0,21.7,10.8,42,28.8,54.1
						c0.7,0.4,1.4,0.7,2.1,0.7c1.2,0,2.4-0.6,3.2-1.7c1.2-1.7,0.7-4.1-1-5.3C17.1,102.3,7.6,84.5,7.6,65.3c0-3.2,0.3-6.3,0.8-9.4
						c0.3-2.1-1.1-4-3.1-4.4c-0.2,0-0.4-0.1-0.6-0.1C2.8,51.4,1.2,52.8,0.9,54.6 M113.9,27.5c-1.7,1.2-2.2,3.6-1,5.3
						c6.5,9.6,10,20.8,10,32.4c0,28.2-20.2,52.1-47.9,56.8c-2.1,0.4-3.5,2.3-3.1,4.4c0.3,1.9,1.9,3.2,3.8,3.2c0.2,0,0.4,0,0.6-0.1
						c31.4-5.3,54.3-32.4,54.3-64.3c0-13.2-3.9-25.9-11.3-36.7c-0.7-1.1-1.9-1.7-3.1-1.7C115.3,26.9,114.6,27.1,113.9,27.5
						 M11.3,28.5c-1.2,1.7-0.7,4.1,1,5.3c0.7,0.4,1.4,0.7,2.1,0.7c1.2,0,2.4-0.6,3.1-1.7C28.4,17,46.2,7.6,65.3,7.6
						c9.1,0,18,2.1,26,6.2c1.6,0.8,2,2.8,1,4.2l-4.8,6.5c-0.8,1.1-2.3,1.5-3.5,0.9c-6.5-3-13.8-4.5-21.5-4.1
						C40.7,22.7,23,40.2,21.4,62c-1.9,25.7,18.5,47.3,43.9,47.3c14.1,0,27.5-6.9,35.7-18.4c0.6-0.8,0.8-1.9,0.7-2.9
						c-0.2-1-0.8-1.9-1.6-2.5l-12.6-8.4c-1.1-0.8-1.6-2.2-1-3.5c1-2.6,1.6-5.4,1.6-8.3c0-13.1-11.2-23.6-24.5-22.6
						c-10.2,0.8-18.7,8.4-20.5,18.5c-1.7,9.1,2.3,18,9.7,23c1.7,1.2,4.1,0.7,5.3-1c1.2-1.7,0.6-4.2-1.1-5.3
						c-5.2-3.5-7.8-9.9-6.2-16.2c1.5-5.9,6.5-10.4,12.6-11.3c9.2-1.2,17.1,5.9,17.1,14.9c0,5.9-3.4,11.3-8.8,13.7
						c-1.6,0.8-2.7,2.5-2.3,4.2c0.4,1.9,2,3.1,3.7,3.1c0.5,0,1-0.1,1.6-0.3c1.7-0.7,3.2-1.7,4.6-2.8c1-0.8,2.3-0.9,3.4-0.2l6.9,4.6
						c1.6,1,1.7,3.3,0.3,4.5c-6.6,6-15.4,9.5-24.5,9.5c-20.4,0-37-16.9-36.3-37.5c0.6-18.8,15.8-34.3,34.6-35.2
						C82,28.1,98,41,101.1,59c0.4,2.3,2.8,3.8,5.2,2.9c1.7-0.7,2.6-2.5,2.3-4.4c-1.8-10.1-6.9-18.9-14.1-25.3
						c-1.1-1-1.3-2.6-0.4-3.8l8.7-11.9c0.6-0.8,0.9-1.9,0.7-2.9c-0.2-1-0.8-1.9-1.6-2.5C91,3.9,78.4,0,65.3,0
						C43.7,0,23.5,10.7,11.3,28.5"/>
				</defs>
				<clipPath id="SVGID_2_">
					<use xlink:href="#SVGID_1_"  style="overflow:visible;"/>
				</clipPath>
				<rect x="10.1" class="st1" width="1.7" height="109.2"/>
				<rect x="11.9" class="st2" width="2.4" height="109.2"/>
				<rect x="14.2" class="st3" width="2.4" height="109.2"/>
				<rect x="16.6" class="st4" width="2.4" height="109.2"/>
				<rect x="19" class="st5" width="2.4" height="109.2"/>
				<rect x="21.4" class="st6" width="2.4" height="109.2"/>
				<rect x="23.7" class="st7" width="2.4" height="109.2"/>
				<rect x="26.1" class="st8" width="2.4" height="109.2"/>
				<rect x="28.5" class="st9" width="2.4" height="109.2"/>
				<rect x="30.9" class="st10" width="2.4" height="109.2"/>
				<rect x="33.2" class="st11" width="2.4" height="109.2"/>
				<rect x="35.6" class="st12" width="2.4" height="109.2"/>
				<rect x="38" class="st13" width="2.4" height="109.2"/>
				<rect x="40.3" class="st14" width="2.4" height="109.2"/>
				<rect x="42.7" class="st15" width="2.4" height="109.2"/>
				<rect x="45.1" class="st16" width="2.4" height="109.2"/>
				<rect x="47.5" class="st17" width="2.4" height="109.2"/>
				<rect x="49.8" class="st18" width="2.4" height="109.2"/>
				<rect x="52.2" class="st19" width="2.4" height="109.2"/>
				<rect x="54.6" class="st20" width="2.4" height="109.2"/>
				<rect x="57" class="st21" width="2.4" height="109.2"/>
				<rect x="59.3" class="st22" width="2.4" height="109.2"/>
				<rect x="61.7" class="st23" width="2.4" height="109.2"/>
				<rect x="64.1" class="st24" width="2.4" height="109.2"/>
				<rect x="66.4" class="st25" width="2.4" height="109.2"/>
				<rect x="68.8" class="st26" width="2.4" height="109.2"/>
				<rect x="71.2" class="st27" width="2.4" height="109.2"/>
				<rect x="73.6" class="st28" width="2.4" height="109.2"/>
				<rect x="75.9" class="st29" width="2.4" height="109.2"/>
				<rect x="78.3" class="st29" width="2.4" height="109.2"/>
				<rect x="80.7" class="st30" width="2.4" height="109.2"/>
				<rect x="83.1" class="st31" width="2.4" height="109.2"/>
				<rect x="85.4" class="st32" width="2.4" height="109.2"/>
				<rect x="87.8" class="st33" width="2.4" height="109.2"/>
				<rect x="90.2" class="st34" width="2.4" height="109.2"/>
				<rect x="92.6" class="st35" width="2.4" height="109.2"/>
				<rect x="94.9" class="st35" width="2.4" height="109.2"/>
				<rect x="97.3" class="st36" width="2.4" height="109.2"/>
				<rect x="99.7" class="st36" width="2.4" height="109.2"/>
				<rect x="102" class="st37" width="2.4" height="109.2"/>
				<rect x="104.4" class="st37" width="2.4" height="109.2"/>
				<rect x="106.8" class="st37" width="2.1" height="109.2"/>
				<rect x="71.5" y="26.9" class="st27" width="2.1" height="102.8"/>
				<rect x="73.6" y="26.9" class="st28" width="2.4" height="102.8"/>
				<rect x="75.9" y="26.9" class="st29" width="2.4" height="102.8"/>
				<rect x="78.3" y="26.9" class="st29" width="2.4" height="102.8"/>
				<rect x="80.7" y="26.9" class="st30" width="2.4" height="102.8"/>
				<rect x="83.1" y="26.9" class="st31" width="2.4" height="102.8"/>
				<rect x="85.4" y="26.9" class="st32" width="2.4" height="102.8"/>
				<rect x="87.8" y="26.9" class="st33" width="2.4" height="102.8"/>
				<rect x="90.2" y="26.9" class="st34" width="2.4" height="102.8"/>
				<rect x="92.6" y="26.9" class="st35" width="2.4" height="102.8"/>
				<rect x="94.9" y="26.9" class="st35" width="2.4" height="102.8"/>
				<rect x="97.3" y="26.9" class="st36" width="2.4" height="102.8"/>
				<rect x="99.7" y="26.9" class="st36" width="2.4" height="102.8"/>
				<rect x="102" y="26.9" class="st37" width="2.4" height="102.8"/>
				<rect x="104.4" y="26.9" class="st37" width="2.4" height="102.8"/>
				<rect x="106.8" y="26.9" class="st37" width="2.4" height="102.8"/>
				<rect x="109.2" y="26.9" class="st38" width="2.4" height="102.8"/>
				<rect x="111.5" y="26.9" class="st39" width="2.4" height="102.8"/>
				<rect x="113.9" y="26.9" class="st39" width="2.4" height="102.8"/>
				<rect x="116.3" y="26.9" class="st39" width="2.4" height="102.8"/>
				<rect x="118.7" y="26.9" class="st40" width="2.4" height="102.8"/>
				<rect x="121" y="26.9" class="st40" width="2.4" height="102.8"/>
				<rect x="123.4" y="26.9" class="st40" width="2.4" height="102.8"/>
				<rect x="125.8" y="26.9" class="st40" width="2.4" height="102.8"/>
				<rect x="128.1" y="26.9" class="st40" width="2.4" height="102.8"/>
				<path class="st40" d="M130.5,129.7V26.9V129.7z"/>
				<path class="st41" d="M0,51.4V120V51.4z"/>
				<rect y="51.4" class="st41" width="2.4" height="68.6"/>
				<rect x="2.4" y="51.4" class="st42" width="2.4" height="68.6"/>
				<rect x="4.7" y="51.4" class="st43" width="2.4" height="68.6"/>
				<rect x="7.1" y="51.4" class="st44" width="2.4" height="68.6"/>
				<rect x="9.5" y="51.4" class="st1" width="2.4" height="68.6"/>
				<rect x="11.9" y="51.4" class="st2" width="2.4" height="68.6"/>
				<rect x="14.2" y="51.4" class="st3" width="2.4" height="68.6"/>
				<rect x="16.6" y="51.4" class="st4" width="2.4" height="68.6"/>
				<rect x="19" y="51.4" class="st5" width="2.4" height="68.6"/>
				<rect x="21.4" y="51.4" class="st6" width="2.4" height="68.6"/>
				<rect x="23.7" y="51.4" class="st7" width="2.4" height="68.6"/>
				<rect x="26.1" y="51.4" class="st8" width="2.4" height="68.6"/>
				<rect x="28.5" y="51.4" class="st9" width="2.4" height="68.6"/>
				<rect x="30.9" y="51.4" class="st10" width="2.4" height="68.6"/>
				<rect x="33.2" y="51.4" class="st11" width="2" height="68.6"/>
				<rect x="49" y="121" class="st17" width="0.9" height="8.1"/>
				<rect x="49.8" y="121" class="st18" width="2.4" height="8.1"/>
				<rect x="52.2" y="121" class="st19" width="2.4" height="8.1"/>
				<rect x="54.6" y="121" class="st20" width="2.4" height="8.1"/>
				<rect x="57" y="121" class="st21" width="0.4" height="8.1"/>
			</g>
		</g>
		<g>
			<path class="st0" d="M198.5,25.2c10.1,0,19.1,3.6,25.7,9.6c2,1.8,2.4,5,0.6,7.3c-2,2.2-5.3,2.4-7.4,0.6c-5-4.5-11.4-7.4-18.8-7.4
				c-16.1,0-28.7,13.2-28.7,29.6c0,16.4,12.6,29.5,28.7,29.5c7.4,0,13.8-2.9,18.8-7.4c2.1-1.8,5.4-1.7,7.4,0.6
				c1.8,2.2,1.5,5.5-0.6,7.3c-6.6,6.1-15.6,9.6-25.7,9.6c-21.9,0-39.1-17.7-39.1-39.7C159.4,42.8,176.6,25.2,198.5,25.2"/>
		</g>
		<g>
			<path class="st0" d="M239.8,25.2c3.9,0,7.1,2.8,7.1,6.6c0,3.8-3.1,6.6-7.1,6.6c-3.8,0-7.1-2.8-7.1-6.6
				C232.8,28,236,25.2,239.8,25.2 M245,55.6c0-2.8-2.2-5.2-5.2-5.2c-2.8,0-5,2.4-5,5.2v43.1c0,2.8,2.2,5.2,5,5.2
				c2.9,0,5.2-2.4,5.2-5.2V55.6z"/>
		</g>
		<g>
			<path class="st0" d="M265.2,58.8c3.1-6.3,10.6-9,16.4-9c13,0,20.2,8.5,20.2,23.2v25.7c0,2.8-2.2,5.2-5.2,5.2c-2.8,0-5-2.4-5-5.2
				v-25c0-8.7-4.4-13.9-11.5-13.9c-7.4,0-14.8,4.1-14.8,15.2v23.6c0,2.8-2.2,5.2-5.2,5.2c-2.8,0-5-2.4-5-5.2V55.6
				c0-2.8,2.2-5.2,5-5.2c2.9,0,5.2,2.4,5.2,5.2V58.8z"/>
		</g>
		<g>
			<path class="st0" d="M334.8,119.8c11.3,0,18.6-6.4,18.6-23.8c0-0.4,0-0.8-0.1-1.2c-3.1,6.2-11.1,9.6-18.4,9.6
				c-14.3,0-26.6-10.5-26.6-27.1c0-16.7,12.2-27.5,26.6-27.5c7.3,0,14.9,3.3,18.4,9.3v-3.6c0-2.8,2.2-5.2,5-5.2
				c2.9,0,5.2,2.4,5.2,5.2v39.8c-0.1,24.7-11.4,34.1-28.7,34.1c-8.3,0-16.1-3.7-21.4-10.6c-1.5-2.1-0.7-5.3,1.7-6.6
				c2.1-1.3,4.9-0.2,6.9,2C325.4,117.9,330.2,119.8,334.8,119.8 M335.8,59.8c-9.4,0-17,7.2-17,17.4c0,10.6,7.6,17.3,17,17.3
				c8.4,0,17.4-6.2,17.4-17.3C353.2,66,345.1,59.8,335.8,59.8"/>
		</g>
		<g>
			<path class="st0" d="M382.4,98.7c0,2.8-2.2,5.2-5.2,5.2c-2.8,0-5-2.4-5-5.2V27.1c0-2.8,2.2-5.2,5-5.2c2.9,0,5.2,2.4,5.2,5.2V98.7
				z"/>
		</g>
		<g>
			<path class="st0" d="M437.7,81h-38.6c1.2,8.7,8.1,14.2,16.9,14.2c6.3,0,9.8-1.6,13.3-5.5c1.9-2.1,4.8-2.8,6.8-1.3
				c2,1.6,2.5,4.6,0.9,6.4c-5,6.5-12.9,9.6-21.4,9.6c-14.9,0-26.8-10.9-26.8-27.5c0-16.6,11.9-27.1,26.8-27.1
				c14.9,0,26,10.5,26,27.1C441.8,79.3,439.9,81,437.7,81 M431.7,73c-1.2-8.7-7.5-14-15.9-14c-8.6,0-15.4,5.3-16.6,14H431.7z"/>
		</g>
		<g>
			<path class="st0" d="M474.2,99c-1.2,3-3.3,4.8-6.3,4.8h-0.6c-3,0-5.2-1.8-6.5-4.8l-17.5-42c-0.9-2.5,0.4-5.7,3.3-6.4
				c2.7-0.8,5.2,0.6,6.3,3.4l14.7,37.3L482.2,54c1.1-2.8,3.6-4.1,6.3-3.4c2.8,0.7,4,3.9,3.1,6.4L474.2,99z"/>
		</g>
		<g>
			<path class="st0" d="M533.4,95.5c-3.1,6.3-10.6,9-16.4,9c-13,0-20.2-8.5-20.2-23.2V55.6c0-2.8,2.2-5.2,5.2-5.2c2.8,0,5,2.4,5,5.2
				v25c0,8.7,4.4,13.9,11.5,13.9c7.4,0,14.8-4.1,14.8-15.2V55.6c0-2.8,2.2-5.2,5.2-5.2c2.8,0,5,2.4,5,5.2v43.1c0,2.8-2.2,5.2-5,5.2
				c-2.9,0-5.2-2.4-5.2-5.2V95.5z"/>
		</g>
		<g>
			<path class="st0" d="M598.8,81h-38.6c1.2,8.7,8.1,14.2,16.9,14.2c6.3,0,9.8-1.6,13.3-5.5c1.9-2.1,4.8-2.8,6.8-1.3
				c2,1.6,2.5,4.6,0.9,6.4c-5,6.5-12.9,9.6-21.4,9.6c-14.9,0-26.8-10.9-26.8-27.5c0-16.6,11.9-27.1,26.8-27.1
				c14.9,0,26,10.5,26,27.1C602.8,79.3,600.9,81,598.8,81 M592.7,73c-1.2-8.7-7.5-14-15.9-14c-8.6,0-15.4,5.3-16.6,14H592.7z"/>
		</g>
	</g>
</g>
</svg>
